<?xml version="1.0" standalone="no"?>
<!DOCTYPE svg PUBLIC "-//W3C//DTD SVG 20010904//EN"
 "http://www.w3.org/TR/2001/REC-SVG-20010904/DTD/svg10.dtd">
<svg version="1.0" xmlns="http://www.w3.org/2000/svg"
 width="512.000000pt" height="512.000000pt" viewBox="0 0 512.000000 512.000000"
 preserveAspectRatio="xMidYMid meet">
<metadata>
Created by potrace 1.14, written by Peter Selinger 2001-2017
</metadata>
<g transform="translate(0.000000,512.000000) scale(0.100000,-0.100000)"
fill="#000000" stroke="none">
<path d="M1325 4421 l-710 -446 -130 -131 -131 -130 127 -1195 128 -1194 44
-129 43 -129 90 -35 c64 -25 2021 -631 2495 -773 40 -13 42 -12 195 67 l153
79 447 742 447 742 9 103 c26 309 168 2121 168 2145 0 37 -249 344 -289 356
-14 4 -548 88 -1186 187 -638 99 -1167 182 -1175 183 -8 2 -335 -197 -725
-442z m1815 105 c47 -7 78 -16 70 -19 -8 -3 -143 -36 -300 -72 -356 -83 -356
-83 -254 -84 162 -2 335 -46 394 -101 90 -84 -30 -212 -255 -271 -233 -60
-636 -16 -767 84 -84 64 -71 129 39 203 91 62 188 94 503 169 157 37 317 75
355 85 85 22 107 23 215 6z m-1295 -531 c132 -25 395 -75 585 -110 190 -36
368 -70 397 -76 l51 -10 -40 -37 -40 -38 -202 38 c-110 21 -354 68 -541 104
-187 36 -391 75 -452 86 -62 12 -113 24 -113 27 1 12 76 60 95 61 11 0 128
-21 260 -45z m-92 -1359 c220 -52 400 -96 402 -98 1 -2 5 -46 8 -98 l7 -95
-190 -135 c-105 -74 -190 -138 -190 -142 0 -5 8 -8 17 -8 9 0 55 -18 101 -41
66 -32 102 -58 161 -117 130 -130 171 -236 171 -448 0 -144 -14 -196 -71 -253
-51 -51 -111 -71 -212 -71 -256 0 -517 180 -596 411 -10 30 -21 73 -25 95 l-6
41 88 -24 c92 -26 102 -33 102 -73 0 -42 46 -127 95 -175 66 -66 159 -107 254
-113 67 -3 80 -1 111 20 61 41 72 75 68 218 -3 109 -7 132 -30 181 -51 111
-132 168 -305 216 -54 14 -101 29 -105 32 -3 3 -8 46 -10 94 l-3 88 182 132
c99 73 178 135 175 138 -4 3 -144 39 -312 79 -168 41 -306 75 -307 75 -2 1 -6
41 -9 89 -7 84 -6 88 12 83 10 -4 198 -49 417 -101z"/>
<path d="M2371 4285 c-103 -29 -191 -92 -191 -138 0 -28 53 -67 119 -88 141
-44 355 -34 467 23 50 24 104 79 104 104 0 27 -55 69 -116 89 -80 25 -305 31
-383 10z"/>
</g>
</svg>
