{
    "asset" : {
        "generator" : "Khronos glTF Blender I/O v1.3.48",
        "version" : "2.0"
    },
    "scene" : 0,
    "scenes" : [
        {
            "name" : "Scene",
            "nodes" : [
                0
            ]
        }
    ],
    "nodes" : [
        {
            "mesh" : 0,
            "name" : "d10"
        }
    ],
    "materials" : [
        {
            "doubleSided" : true,
            "emissiveFactor" : [
                0,
                0,
                0
            ],
            "name" : "Dice Body",
            "pbrMetallicRoughness" : {
                "baseColorFactor" : [
                    0.0159962959587574,
                    0.01599629409611225,
                    0.0159962959587574,
                    1
                ],
                "metallicFactor" : 0,
                "roughnessFactor" : 0.5
            }
        },
        {
            "doubleSided" : true,
            "emissiveFactor" : [
                0,
                0,
                0
            ],
            "name" : "Numbers",
            "pbrMetallicRoughness" : {
                "baseColorFactor" : [
                    1,
                    1,
                    1,
                    1
                ],
                "metallicFactor" : 0,
                "roughnessFactor" : 0.4000000059604645
            }
        }
    ],
    "meshes" : [
        {
            "name" : "Cone",
            "primitives" : [
                {
                    "attributes" : {
                        "POSITION" : 0,
                        "NORMAL" : 1,
                        "TEXCOORD_0" : 2
                    },
                    "indices" : 3,
                    "material" : 0
                },
                {
                    "attributes" : {
                        "POSITION" : 4,
                        "NORMAL" : 5,
                        "TEXCOORD_0" : 6
                    },
                    "indices" : 7,
                    "material" : 1
                }
            ]
        }
    ],
    "accessors" : [
        {
            "bufferView" : 0,
            "componentType" : 5126,
            "count" : 1958,
            "max" : [
                0.8506508469581604,
                1.125,
                0.8944271206855774
            ],
            "min" : [
                -0.8506507873535156,
                -1.125,
                -0.8944270610809326
            ],
            "type" : "VEC3"
        },
        {
            "bufferView" : 1,
            "componentType" : 5126,
            "count" : 1958,
            "type" : "VEC3"
        },
        {
            "bufferView" : 2,
            "componentType" : 5126,
            "count" : 1958,
            "type" : "VEC2"
        },
        {
            "bufferView" : 3,
            "componentType" : 5123,
            "count" : 5706,
            "type" : "SCALAR"
        },
        {
            "bufferView" : 4,
            "componentType" : 5126,
            "count" : 1890,
            "max" : [
                0.7115042805671692,
                0.6254340410232544,
                0.6997337341308594
            ],
            "min" : [
                -0.7201219797134399,
                -0.6746947765350342,
                -0.7372169494628906
            ],
            "type" : "VEC3"
        },
        {
            "bufferView" : 5,
            "componentType" : 5126,
            "count" : 1890,
            "type" : "VEC3"
        },
        {
            "bufferView" : 6,
            "componentType" : 5126,
            "count" : 1890,
            "type" : "VEC2"
        },
        {
            "bufferView" : 7,
            "componentType" : 5123,
            "count" : 5562,
            "type" : "SCALAR"
        }
    ],
    "bufferViews" : [
        {
            "buffer" : 0,
            "byteLength" : 23496,
            "byteOffset" : 0
        },
        {
            "buffer" : 0,
            "byteLength" : 23496,
            "byteOffset" : 23496
        },
        {
            "buffer" : 0,
            "byteLength" : 15664,
            "byteOffset" : 46992
        },
        {
            "buffer" : 0,
            "byteLength" : 11412,
            "byteOffset" : 62656
        },
        {
            "buffer" : 0,
            "byteLength" : 22680,
            "byteOffset" : 74068
        },
        {
            "buffer" : 0,
            "byteLength" : 22680,
            "byteOffset" : 96748
        },
        {
            "buffer" : 0,
            "byteLength" : 15120,
            "byteOffset" : 119428
        },
        {
            "buffer" : 0,
            "byteLength" : 11124,
            "byteOffset" : 134548
        }
    ],
    "buffers" : [
        {
            "byteLength" : 145672,
            "uri" : "data:application/octet-stream;base64,"
        }
    ]
}
