{
    "asset" : {
        "generator" : "Khronos glTF Blender I/O v1.3.48",
        "version" : "2.0"
    },
    "scene" : 0,
    "scenes" : [
        {
            "name" : "Scene",
            "nodes" : [
                0
            ]
        }
    ],
    "nodes" : [
        {
            "mesh" : 0,
            "name" : "d12"
        }
    ],
    "materials" : [
        {
            "doubleSided" : true,
            "emissiveFactor" : [
                0,
                0,
                0
            ],
            "name" : "Dice Body",
            "pbrMetallicRoughness" : {
                "baseColorFactor" : [
                    0.0159962959587574,
                    0.01599629409611225,
                    0.0159962959587574,
                    1
                ],
                "metallicFactor" : 0,
                "roughnessFactor" : 0.5
            }
        },
        {
            "doubleSided" : true,
            "emissiveFactor" : [
                0,
                0,
                0
            ],
            "name" : "Numbers",
            "pbrMetallicRoughness" : {
                "baseColorFactor" : [
                    1,
                    1,
                    1,
                    1
                ],
                "metallicFactor" : 0,
                "roughnessFactor" : 0.4000000059604645
            }
        }
    ],
    "meshes" : [
        {
            "name" : "Solid.005",
            "primitives" : [
                {
                    "attributes" : {
                        "POSITION" : 0,
                        "NORMAL" : 1
                    },
                    "indices" : 2,
                    "material" : 0
                },
                {
                    "attributes" : {
                        "POSITION" : 3,
                        "NORMAL" : 4
                    },
                    "indices" : 5,
                    "material" : 1
                }
            ]
        }
    ],
    "accessors" : [
        {
            "bufferView" : 0,
            "componentType" : 5126,
            "count" : 2237,
            "max" : [
                0.9341723322868347,
                0.9341723322868347,
                0.9341723322868347
            ],
            "min" : [
                -0.9341723322868347,
                -0.9341723322868347,
                -0.9341723322868347
            ],
            "type" : "VEC3"
        },
        {
            "bufferView" : 1,
            "componentType" : 5126,
            "count" : 2237,
            "type" : "VEC3"
        },
        {
            "bufferView" : 2,
            "componentType" : 5123,
            "count" : 6501,
            "type" : "SCALAR"
        },
        {
            "bufferView" : 3,
            "componentType" : 5126,
            "count" : 2129,
            "max" : [
                0.8520591259002686,
                0.8676202297210693,
                0.8118560314178467
            ],
            "min" : [
                -0.814769983291626,
                -0.7859177589416504,
                -0.8364620208740234
            ],
            "type" : "VEC3"
        },
        {
            "bufferView" : 4,
            "componentType" : 5126,
            "count" : 2129,
            "type" : "VEC3"
        },
        {
            "bufferView" : 5,
            "componentType" : 5123,
            "count" : 6249,
            "type" : "SCALAR"
        }
    ],
    "bufferViews" : [
        {
            "buffer" : 0,
            "byteLength" : 26844,
            "byteOffset" : 0
        },
        {
            "buffer" : 0,
            "byteLength" : 26844,
            "byteOffset" : 26844
        },
        {
            "buffer" : 0,
            "byteLength" : 13002,
            "byteOffset" : 53688
        },
        {
            "buffer" : 0,
            "byteLength" : 25548,
            "byteOffset" : 66692
        },
        {
            "buffer" : 0,
            "byteLength" : 25548,
            "byteOffset" : 92240
        },
        {
            "buffer" : 0,
            "byteLength" : 12498,
            "byteOffset" : 117788
        }
    ],
    "buffers" : [
        {
            "byteLength" : 130288,
            "uri" : "data:application/octet-stream;base64,"
        }
    ]
}
