{
    "asset" : {
        "generator" : "Khronos glTF Blender I/O v1.3.48",
        "version" : "2.0"
    },
    "scene" : 0,
    "scenes" : [
        {
            "name" : "Scene",
            "nodes" : [
                0
            ]
        }
    ],
    "nodes" : [
        {
            "mesh" : 0,
            "name" : "d20"
        }
    ],
    "materials" : [
        {
            "doubleSided" : true,
            "emissiveFactor" : [
                0,
                0,
                0
            ],
            "name" : "Dice Body",
            "pbrMetallicRoughness" : {
                "baseColorFactor" : [
                    0.0159962959587574,
                    0.01599629409611225,
                    0.0159962959587574,
                    1
                ],
                "metallicFactor" : 0,
                "roughnessFactor" : 0.5
            }
        },
        {
            "doubleSided" : true,
            "emissiveFactor" : [
                0,
                0,
                0
            ],
            "name" : "Numbers",
            "pbrMetallicRoughness" : {
                "baseColorFactor" : [
                    1,
                    1,
                    1,
                    1
                ],
                "metallicFactor" : 0,
                "roughnessFactor" : 0.4000000059604645
            }
        }
    ],
    "meshes" : [
        {
            "name" : "Solid.006",
            "primitives" : [
                {
                    "attributes" : {
                        "POSITION" : 0,
                        "NORMAL" : 1
                    },
                    "indices" : 2,
                    "material" : 0
                },
                {
                    "attributes" : {
                        "POSITION" : 3,
                        "NORMAL" : 4
                    },
                    "indices" : 5,
                    "material" : 1
                }
            ]
        }
    ],
    "accessors" : [
        {
            "bufferView" : 0,
            "componentType" : 5126,
            "count" : 4201,
            "max" : [
                0.8506507873535156,
                0.8506507873535156,
                0.8506507873535156
            ],
            "min" : [
                -0.8506507873535156,
                -0.8506507873535156,
                -0.8506507873535156
            ],
            "type" : "VEC3"
        },
        {
            "bufferView" : 1,
            "componentType" : 5126,
            "count" : 4201,
            "type" : "VEC3"
        },
        {
            "bufferView" : 2,
            "componentType" : 5123,
            "count" : 12243,
            "type" : "SCALAR"
        },
        {
            "bufferView" : 3,
            "componentType" : 5126,
            "count" : 4059,
            "max" : [
                0.8158754110336304,
                0.8247079849243164,
                0.829757571220398
            ],
            "min" : [
                -0.8243433833122253,
                -0.8040466904640198,
                -0.8266898393630981
            ],
            "type" : "VEC3"
        },
        {
            "bufferView" : 4,
            "componentType" : 5126,
            "count" : 4059,
            "type" : "VEC3"
        },
        {
            "bufferView" : 5,
            "componentType" : 5123,
            "count" : 11907,
            "type" : "SCALAR"
        }
    ],
    "bufferViews" : [
        {
            "buffer" : 0,
            "byteLength" : 50412,
            "byteOffset" : 0
        },
        {
            "buffer" : 0,
            "byteLength" : 50412,
            "byteOffset" : 50412
        },
        {
            "buffer" : 0,
            "byteLength" : 24486,
            "byteOffset" : 100824
        },
        {
            "buffer" : 0,
            "byteLength" : 48708,
            "byteOffset" : 125312
        },
        {
            "buffer" : 0,
            "byteLength" : 48708,
            "byteOffset" : 174020
        },
        {
            "buffer" : 0,
            "byteLength" : 23814,
            "byteOffset" : 222728
        }
    ],
    "buffers" : [
        {
            "byteLength" : 246544,
            "uri" : "data:application/octet-stream;base64,"
        }
    ]
}
