{
    "asset" : {
        "generator" : "Khronos glTF Blender I/O v1.3.48",
        "version" : "2.0"
    },
    "scene" : 0,
    "scenes" : [
        {
            "name" : "Scene",
            "nodes" : [
                0
            ]
        }
    ],
    "nodes" : [
        {
            "mesh" : 0,
            "name" : "d6"
        }
    ],
    "materials" : [
        {
            "doubleSided" : true,
            "emissiveFactor" : [
                0,
                0,
                0
            ],
            "name" : "Dice Body",
            "pbrMetallicRoughness" : {
                "baseColorFactor" : [
                    0.0159962959587574,
                    0.01599629409611225,
                    0.0159962959587574,
                    1
                ],
                "metallicFactor" : 0,
                "roughnessFactor" : 0.5
            }
        },
        {
            "doubleSided" : true,
            "emissiveFactor" : [
                0,
                0,
                0
            ],
            "name" : "Numbers",
            "pbrMetallicRoughness" : {
                "baseColorFactor" : [
                    1,
                    1,
                    1,
                    1
                ],
                "metallicFactor" : 0,
                "roughnessFactor" : 0.4000000059604645
            }
        }
    ],
    "meshes" : [
        {
            "name" : "Solid.001",
            "primitives" : [
                {
                    "attributes" : {
                        "POSITION" : 0,
                        "NORMAL" : 1
                    },
                    "indices" : 2,
                    "material" : 0
                },
                {
                    "attributes" : {
                        "POSITION" : 3,
                        "NORMAL" : 4
                    },
                    "indices" : 5,
                    "material" : 1
                }
            ]
        }
    ],
    "accessors" : [
        {
            "bufferView" : 0,
            "componentType" : 5126,
            "count" : 962,
            "max" : [
                0.5773502588272095,
                0.5773502588272095,
                0.5773502588272095
            ],
            "min" : [
                -0.5773502588272095,
                -0.5773502588272095,
                -0.5773502588272095
            ],
            "type" : "VEC3"
        },
        {
            "bufferView" : 1,
            "componentType" : 5126,
            "count" : 962,
            "type" : "VEC3"
        },
        {
            "bufferView" : 2,
            "componentType" : 5123,
            "count" : 2676,
            "type" : "SCALAR"
        },
        {
            "bufferView" : 3,
            "componentType" : 5126,
            "count" : 840,
            "max" : [
                0.5773502588272095,
                0.5773502588272095,
                0.5773502588272095
            ],
            "min" : [
                -0.5773502588272095,
                -0.5773502588272095,
                -0.5773502588272095
            ],
            "type" : "VEC3"
        },
        {
            "bufferView" : 4,
            "componentType" : 5126,
            "count" : 840,
            "type" : "VEC3"
        },
        {
            "bufferView" : 5,
            "componentType" : 5123,
            "count" : 2472,
            "type" : "SCALAR"
        }
    ],
    "bufferViews" : [
        {
            "buffer" : 0,
            "byteLength" : 11544,
            "byteOffset" : 0
        },
        {
            "buffer" : 0,
            "byteLength" : 11544,
            "byteOffset" : 11544
        },
        {
            "buffer" : 0,
            "byteLength" : 5352,
            "byteOffset" : 23088
        },
        {
            "buffer" : 0,
            "byteLength" : 10080,
            "byteOffset" : 28440
        },
        {
            "buffer" : 0,
            "byteLength" : 10080,
            "byteOffset" : 38520
        },
        {
            "buffer" : 0,
            "byteLength" : 4944,
            "byteOffset" : 48600
        }
    ],
    "buffers" : [
        {
            "byteLength" : 53544,
            "uri" : "data:application/octet-stream;base64,"
        }
    ]
}
