{
    "asset" : {
        "generator" : "Khronos glTF Blender I/O v1.3.48",
        "version" : "2.0"
    },
    "scene" : 0,
    "scenes" : [
        {
            "name" : "Scene",
            "nodes" : [
                0
            ]
        }
    ],
    "nodes" : [
        {
            "mesh" : 0,
            "name" : "d8"
        }
    ],
    "materials" : [
        {
            "doubleSided" : true,
            "emissiveFactor" : [
                0,
                0,
                0
            ],
            "name" : "Dice Body",
            "pbrMetallicRoughness" : {
                "baseColorFactor" : [
                    0.0159962959587574,
                    0.01599629409611225,
                    0.0159962959587574,
                    1
                ],
                "metallicFactor" : 0,
                "roughnessFactor" : 0.5
            }
        },
        {
            "doubleSided" : true,
            "emissiveFactor" : [
                0,
                0,
                0
            ],
            "name" : "Numbers",
            "pbrMetallicRoughness" : {
                "baseColorFactor" : [
                    1,
                    1,
                    1,
                    1
                ],
                "metallicFactor" : 0,
                "roughnessFactor" : 0.4000000059604645
            }
        }
    ],
    "meshes" : [
        {
            "name" : "Solid.004",
            "primitives" : [
                {
                    "attributes" : {
                        "POSITION" : 0,
                        "NORMAL" : 1
                    },
                    "indices" : 2,
                    "material" : 0
                },
                {
                    "attributes" : {
                        "POSITION" : 3,
                        "NORMAL" : 4
                    },
                    "indices" : 5,
                    "material" : 1
                }
            ]
        }
    ],
    "accessors" : [
        {
            "bufferView" : 0,
            "componentType" : 5126,
            "count" : 1326,
            "max" : [
                1,
                1,
                1
            ],
            "min" : [
                -1,
                -1,
                -1
            ],
            "type" : "VEC3"
        },
        {
            "bufferView" : 1,
            "componentType" : 5126,
            "count" : 1326,
            "type" : "VEC3"
        },
        {
            "bufferView" : 2,
            "componentType" : 5123,
            "count" : 3858,
            "type" : "SCALAR"
        },
        {
            "bufferView" : 3,
            "componentType" : 5126,
            "count" : 1280,
            "max" : [
                0.6218156814575195,
                0.6285910606384277,
                0.5610452890396118
            ],
            "min" : [
                -0.541300356388092,
                -0.5692954063415527,
                -0.6127929091453552
            ],
            "type" : "VEC3"
        },
        {
            "bufferView" : 4,
            "componentType" : 5126,
            "count" : 1280,
            "type" : "VEC3"
        },
        {
            "bufferView" : 5,
            "componentType" : 5123,
            "count" : 3768,
            "type" : "SCALAR"
        }
    ],
    "bufferViews" : [
        {
            "buffer" : 0,
            "byteLength" : 15912,
            "byteOffset" : 0
        },
        {
            "buffer" : 0,
            "byteLength" : 15912,
            "byteOffset" : 15912
        },
        {
            "buffer" : 0,
            "byteLength" : 7716,
            "byteOffset" : 31824
        },
        {
            "buffer" : 0,
            "byteLength" : 15360,
            "byteOffset" : 39540
        },
        {
            "buffer" : 0,
            "byteLength" : 15360,
            "byteOffset" : 54900
        },
        {
            "buffer" : 0,
            "byteLength" : 7536,
            "byteOffset" : 70260
        }
    ],
    "buffers" : [
        {
            "byteLength" : 77796,
            "uri" : "data:application/octet-stream;base64,"
        }
    ]
}
